<svg width="150" height="275" viewBox="0 0 150 275" fill="none" xmlns="http://www.w3.org/2000/svg">
<g clip-path="url(#clip0_2_88)">
<path d="M0 0H150V117H0V0Z" fill="url(#paint0_linear_2_88)"/>
<path d="M0 117H150V275H0V117Z" fill="#18171C"/>
<path d="M43.7278 131.934C44.1011 131.878 44.4604 131.85 44.8058 131.85C45.1698 131.85 45.5291 131.878 45.8838 131.934L48.1938 137.702L50.5738 131.934C50.8631 131.878 51.1851 131.85 51.5398 131.85C51.8944 131.85 52.2351 131.878 52.5618 131.934L53.0378 142C52.6831 142.056 52.3471 142.084 52.0298 142.084C51.7124 142.084 51.3998 142.056 51.0918 142L50.8398 135.168L48.7958 139.9C48.6651 139.919 48.5298 139.937 48.3898 139.956C48.2498 139.965 48.1098 139.97 47.9698 139.97C47.8484 139.97 47.7271 139.965 47.6058 139.956C47.4844 139.947 47.3584 139.928 47.2278 139.9L45.3238 135.07L45.1278 142C44.8291 142.056 44.5398 142.084 44.2598 142.084C43.9611 142.084 43.6531 142.056 43.3358 142L43.7278 131.934ZM54.0511 134.762C54.2658 134.715 54.4525 134.692 54.6111 134.692C54.7791 134.683 54.9331 134.678 55.0731 134.678C55.2598 134.678 55.4511 134.683 55.6471 134.692C55.8431 134.701 56.0205 134.725 56.1791 134.762L57.6911 141.076L59.3991 134.762C59.7071 134.706 60.0245 134.678 60.3511 134.678C60.4911 134.678 60.6405 134.683 60.7991 134.692C60.9578 134.692 61.1538 134.715 61.3871 134.762L58.6851 143.708C58.5731 144.063 58.4378 144.357 58.2791 144.59C58.1298 144.823 57.9571 145.005 57.7611 145.136C57.5651 145.267 57.3458 145.355 57.1031 145.402C56.8605 145.458 56.5991 145.486 56.3191 145.486C56.0578 145.486 55.8198 145.467 55.6051 145.43C55.3998 145.402 55.1945 145.36 54.9891 145.304C54.9798 145.257 54.9751 145.215 54.9751 145.178C54.9751 145.15 54.9751 145.117 54.9751 145.08C54.9751 144.856 54.9985 144.641 55.0451 144.436C55.1011 144.24 55.1665 144.049 55.2411 143.862C55.3251 143.89 55.4371 143.913 55.5771 143.932C55.7171 143.96 55.8571 143.974 55.9971 143.974C56.1091 143.974 56.2211 143.965 56.3331 143.946C56.4451 143.937 56.5525 143.895 56.6551 143.82C56.7671 143.755 56.8698 143.647 56.9631 143.498C57.0565 143.349 57.1405 143.139 57.2151 142.868L57.4531 142C57.3505 142.009 57.2338 142.014 57.1031 142.014C56.9818 142.023 56.8558 142.028 56.7251 142.028C56.6225 142.028 56.5245 142.028 56.4311 142.028C56.3378 142.028 56.2538 142.019 56.1791 142L54.0511 134.762ZM65.5552 131.892C65.9845 131.855 66.4185 131.827 66.8572 131.808C67.2959 131.78 67.7392 131.766 68.1872 131.766C68.6539 131.766 69.1252 131.813 69.6012 131.906C70.0865 131.999 70.5205 132.177 70.9032 132.438C71.2952 132.69 71.6125 133.045 71.8552 133.502C72.0979 133.959 72.2192 134.552 72.2192 135.28C72.2192 136.008 72.0979 136.601 71.8552 137.058C71.6125 137.506 71.2999 137.861 70.9172 138.122C70.5345 138.383 70.1052 138.561 69.6292 138.654C69.1625 138.747 68.7005 138.794 68.2432 138.794C68.1219 138.794 68.0052 138.794 67.8932 138.794C67.7905 138.785 67.6925 138.775 67.5992 138.766V142C67.4219 142.028 67.2492 142.047 67.0812 142.056C66.9132 142.065 66.7499 142.07 66.5912 142.07C66.4419 142.07 66.2785 142.065 66.1012 142.056C65.9239 142.047 65.7419 142.028 65.5552 142V131.892ZM67.5992 137.072C67.7112 137.091 67.8139 137.1 67.9072 137.1C68.0099 137.1 68.1312 137.1 68.2712 137.1C68.5045 137.1 68.7332 137.072 68.9572 137.016C69.1812 136.951 69.3772 136.848 69.5452 136.708C69.7225 136.568 69.8625 136.386 69.9652 136.162C70.0679 135.929 70.1192 135.644 70.1192 135.308C70.1192 134.963 70.0679 134.673 69.9652 134.44C69.8625 134.197 69.7225 134.006 69.5452 133.866C69.3772 133.717 69.1812 133.614 68.9572 133.558C68.7332 133.493 68.5045 133.46 68.2712 133.46C68.1685 133.46 68.0705 133.465 67.9772 133.474C67.8932 133.474 67.7672 133.483 67.5992 133.502V137.072ZM73.7173 134.762C73.8573 134.734 73.988 134.715 74.1093 134.706C74.24 134.687 74.38 134.678 74.5293 134.678C74.6693 134.678 74.8046 134.687 74.9353 134.706C75.0753 134.725 75.2106 134.748 75.3413 134.776C75.3693 134.823 75.3926 134.893 75.4113 134.986C75.4393 135.07 75.4626 135.163 75.4813 135.266C75.5 135.359 75.514 135.457 75.5233 135.56C75.542 135.653 75.556 135.733 75.5653 135.798C75.7706 135.509 76.0226 135.252 76.3213 135.028C76.62 134.795 76.9933 134.678 77.4413 134.678C77.5346 134.678 77.642 134.683 77.7633 134.692C77.8846 134.701 77.9733 134.715 78.0293 134.734C78.048 134.827 78.062 134.935 78.0713 135.056C78.0806 135.177 78.0853 135.303 78.0853 135.434C78.0853 135.593 78.076 135.765 78.0573 135.952C78.048 136.139 78.0246 136.316 77.9873 136.484C77.8846 136.465 77.768 136.456 77.6373 136.456C77.516 136.456 77.4413 136.456 77.4133 136.456C77.2546 136.456 77.0773 136.475 76.8813 136.512C76.6853 136.54 76.4986 136.624 76.3213 136.764C76.144 136.904 75.9946 137.114 75.8733 137.394C75.7613 137.674 75.7053 138.066 75.7053 138.57V142.014C75.5373 142.042 75.3693 142.061 75.2013 142.07C75.0333 142.079 74.87 142.084 74.7113 142.084C74.5526 142.084 74.3893 142.079 74.2213 142.07C74.0626 142.061 73.8946 142.042 73.7173 142.014V134.762ZM82.211 142.168C81.623 142.168 81.1097 142.075 80.671 141.888C80.2417 141.692 79.8824 141.426 79.593 141.09C79.313 140.745 79.0984 140.343 78.949 139.886C78.809 139.429 78.739 138.934 78.739 138.402C78.739 137.87 78.809 137.371 78.949 136.904C79.0984 136.437 79.313 136.036 79.593 135.7C79.8824 135.355 80.2417 135.084 80.671 134.888C81.1097 134.692 81.623 134.594 82.211 134.594C82.799 134.594 83.3124 134.692 83.751 134.888C84.1897 135.084 84.5537 135.355 84.843 135.7C85.1324 136.036 85.347 136.437 85.487 136.904C85.627 137.371 85.697 137.87 85.697 138.402C85.697 138.934 85.627 139.429 85.487 139.886C85.347 140.343 85.1324 140.745 84.843 141.09C84.5537 141.426 84.1897 141.692 83.751 141.888C83.3124 142.075 82.799 142.168 82.211 142.168ZM82.211 140.656C82.7337 140.656 83.107 140.465 83.331 140.082C83.5644 139.69 83.681 139.13 83.681 138.402C83.681 137.674 83.5644 137.119 83.331 136.736C83.107 136.344 82.7337 136.148 82.211 136.148C81.6977 136.148 81.3244 136.344 81.091 136.736C80.867 137.119 80.755 137.674 80.755 138.402C80.755 139.13 80.867 139.69 81.091 140.082C81.3244 140.465 81.6977 140.656 82.211 140.656ZM87.7421 136.274H86.5941C86.5661 136.125 86.5475 135.989 86.5381 135.868C86.5288 135.747 86.5241 135.621 86.5241 135.49C86.5241 135.369 86.5288 135.252 86.5381 135.14C86.5475 135.028 86.5661 134.902 86.5941 134.762H87.7421V134.412C87.7421 133.964 87.8215 133.567 87.9801 133.222C88.1481 132.867 88.3721 132.573 88.6521 132.34C88.9415 132.097 89.2868 131.915 89.6881 131.794C90.0895 131.663 90.5281 131.598 91.0041 131.598C91.4708 131.598 91.9001 131.626 92.2921 131.682C92.6841 131.738 93.0668 131.845 93.4401 132.004C93.4215 132.312 93.3701 132.597 93.2861 132.858C93.2115 133.119 93.1088 133.357 92.9781 133.572C92.6515 133.441 92.3528 133.353 92.0821 133.306C91.8115 133.259 91.5221 133.236 91.2141 133.236C91.0368 133.236 90.8595 133.255 90.6821 133.292C90.5048 133.32 90.3461 133.381 90.2061 133.474C90.0661 133.558 89.9495 133.679 89.8561 133.838C89.7721 133.997 89.7255 134.202 89.7161 134.454V134.762H94.1541V142C93.8181 142.056 93.4915 142.084 93.1741 142.084C92.8661 142.084 92.5441 142.056 92.2081 142V136.274H89.7161V142C89.3801 142.056 89.0535 142.084 88.7361 142.084C88.4095 142.084 88.0781 142.056 87.7421 142V136.274ZM96.0558 131.766C96.3918 131.71 96.7232 131.682 97.0498 131.682C97.3672 131.682 97.6938 131.71 98.0298 131.766V139.116C98.0298 139.405 98.0438 139.639 98.0718 139.816C98.1092 139.993 98.1605 140.133 98.2258 140.236C98.3005 140.329 98.3938 140.395 98.5058 140.432C98.6178 140.469 98.7578 140.488 98.9258 140.488C99.0005 140.488 99.0798 140.483 99.1638 140.474C99.2572 140.465 99.3458 140.451 99.4298 140.432C99.5325 140.815 99.5838 141.188 99.5838 141.552C99.5838 141.627 99.5838 141.697 99.5838 141.762C99.5838 141.818 99.5745 141.883 99.5558 141.958C99.4065 142.005 99.2245 142.037 99.0098 142.056C98.8045 142.075 98.6132 142.084 98.4358 142.084C97.7172 142.084 97.1385 141.888 96.6998 141.496C96.2705 141.095 96.0558 140.446 96.0558 139.55V131.766ZM102.233 138.99C102.27 139.55 102.466 139.956 102.821 140.208C103.176 140.46 103.642 140.586 104.221 140.586C104.538 140.586 104.86 140.558 105.187 140.502C105.523 140.437 105.84 140.348 106.139 140.236C106.242 140.423 106.33 140.647 106.405 140.908C106.48 141.169 106.522 141.449 106.531 141.748C105.803 142.028 104.982 142.168 104.067 142.168C103.395 142.168 102.816 142.075 102.331 141.888C101.855 141.701 101.463 141.445 101.155 141.118C100.856 140.782 100.632 140.385 100.483 139.928C100.343 139.471 100.273 138.971 100.273 138.43C100.273 137.898 100.348 137.399 100.497 136.932C100.646 136.465 100.866 136.059 101.155 135.714C101.454 135.369 101.818 135.098 102.247 134.902C102.686 134.697 103.194 134.594 103.773 134.594C104.277 134.594 104.725 134.683 105.117 134.86C105.509 135.037 105.84 135.28 106.111 135.588C106.391 135.896 106.601 136.265 106.741 136.694C106.881 137.114 106.951 137.567 106.951 138.052C106.951 138.229 106.942 138.407 106.923 138.584C106.914 138.752 106.9 138.887 106.881 138.99H102.233ZM105.075 137.604C105.056 137.156 104.93 136.797 104.697 136.526C104.473 136.246 104.156 136.106 103.745 136.106C103.278 136.106 102.924 136.237 102.681 136.498C102.438 136.759 102.294 137.128 102.247 137.604H105.075Z" fill="white"/>
<path d="M52.1786 166.934C52.5893 166.887 52.9719 166.85 53.3266 166.822C53.6906 166.785 54.0919 166.766 54.5306 166.766C55.0439 166.766 55.5479 166.813 56.0426 166.906C56.5466 166.999 56.9993 167.167 57.4006 167.41C57.8019 167.643 58.1239 167.965 58.3666 168.376C58.6186 168.777 58.7446 169.291 58.7446 169.916C58.7446 170.289 58.6979 170.621 58.6046 170.91C58.5113 171.19 58.3899 171.437 58.2406 171.652C58.1006 171.867 57.9466 172.053 57.7786 172.212C57.6106 172.361 57.4519 172.483 57.3026 172.576L57.0646 172.73L59.5146 176.986C59.3279 177.005 59.1319 177.023 58.9266 177.042C58.7213 177.061 58.5113 177.07 58.2966 177.07C57.9419 177.07 57.5919 177.042 57.2466 176.986L54.6146 172.31L54.9506 172.142C55.0813 172.077 55.2399 171.993 55.4266 171.89C55.6133 171.787 55.7906 171.661 55.9586 171.512C56.1359 171.353 56.2853 171.167 56.4066 170.952C56.5279 170.728 56.5886 170.467 56.5886 170.168C56.5886 169.58 56.4206 169.151 56.0846 168.88C55.7486 168.6 55.3146 168.46 54.7826 168.46C54.5773 168.46 54.3906 168.474 54.2226 168.502V177C54.0546 177.019 53.8866 177.033 53.7186 177.042C53.5506 177.061 53.3873 177.07 53.2286 177.07C53.0699 177.07 52.9019 177.065 52.7246 177.056C52.5473 177.047 52.3653 177.028 52.1786 177V166.934ZM62.0845 173.99C62.1218 174.55 62.3178 174.956 62.6725 175.208C63.0271 175.46 63.4938 175.586 64.0725 175.586C64.3898 175.586 64.7118 175.558 65.0385 175.502C65.3745 175.437 65.6918 175.348 65.9905 175.236C66.0931 175.423 66.1818 175.647 66.2565 175.908C66.3311 176.169 66.3731 176.449 66.3825 176.748C65.6545 177.028 64.8331 177.168 63.9185 177.168C63.2465 177.168 62.6678 177.075 62.1825 176.888C61.7065 176.701 61.3145 176.445 61.0065 176.118C60.7078 175.782 60.4838 175.385 60.3345 174.928C60.1945 174.471 60.1245 173.971 60.1245 173.43C60.1245 172.898 60.1991 172.399 60.3485 171.932C60.4978 171.465 60.7171 171.059 61.0065 170.714C61.3051 170.369 61.6691 170.098 62.0985 169.902C62.5371 169.697 63.0458 169.594 63.6245 169.594C64.1285 169.594 64.5765 169.683 64.9685 169.86C65.3605 170.037 65.6918 170.28 65.9625 170.588C66.2425 170.896 66.4525 171.265 66.5925 171.694C66.7325 172.114 66.8025 172.567 66.8025 173.052C66.8025 173.229 66.7931 173.407 66.7745 173.584C66.7651 173.752 66.7511 173.887 66.7325 173.99H62.0845ZM64.9265 172.604C64.9078 172.156 64.7818 171.797 64.5485 171.526C64.3245 171.246 64.0071 171.106 63.5965 171.106C63.1298 171.106 62.7751 171.237 62.5325 171.498C62.2898 171.759 62.1451 172.128 62.0985 172.604H64.9265ZM72.4238 175.796C73.2731 175.815 73.8985 176.006 74.2998 176.37C74.7011 176.725 74.9018 177.233 74.9018 177.896C74.9018 178.288 74.7991 178.643 74.5938 178.96C74.3885 179.287 74.1085 179.562 73.7538 179.786C73.3991 180.01 72.9791 180.183 72.4938 180.304C72.0085 180.425 71.4858 180.486 70.9258 180.486C70.3658 180.486 69.8898 180.439 69.4978 180.346C69.1058 180.262 68.7838 180.141 68.5318 179.982C68.2891 179.823 68.1118 179.627 67.9998 179.394C67.8971 179.161 67.8458 178.904 67.8458 178.624C67.8458 178.204 67.9438 177.859 68.1398 177.588C68.3451 177.317 68.6158 177.079 68.9518 176.874C68.7371 176.743 68.5645 176.585 68.4338 176.398C68.3125 176.202 68.2518 175.955 68.2518 175.656C68.2518 175.301 68.3265 175.012 68.4758 174.788C68.6251 174.564 68.8445 174.349 69.1338 174.144C68.8071 173.911 68.5551 173.626 68.3778 173.29C68.2005 172.954 68.1118 172.581 68.1118 172.17C68.1118 171.806 68.1818 171.47 68.3218 171.162C68.4618 170.845 68.6625 170.574 68.9238 170.35C69.1945 170.117 69.5211 169.935 69.9038 169.804C70.2865 169.673 70.7158 169.608 71.1918 169.608C71.6585 169.608 72.0878 169.683 72.4798 169.832C72.8718 169.972 73.1985 170.154 73.4598 170.378C73.6371 170.145 73.8565 169.972 74.1178 169.86C74.3791 169.739 74.7338 169.678 75.1818 169.678C75.2005 169.799 75.2145 169.921 75.2238 170.042C75.2425 170.154 75.2518 170.275 75.2518 170.406C75.2518 170.555 75.2471 170.705 75.2378 170.854C75.2285 171.003 75.2098 171.157 75.1818 171.316H74.0478C74.0945 171.409 74.1365 171.521 74.1738 171.652C74.2111 171.783 74.2298 171.955 74.2298 172.17C74.2298 172.534 74.1598 172.875 74.0198 173.192C73.8891 173.5 73.6931 173.766 73.4318 173.99C73.1705 174.214 72.8485 174.391 72.4658 174.522C72.0925 174.653 71.6678 174.718 71.1918 174.718C70.7905 174.718 70.4311 174.676 70.1138 174.592C69.9551 174.695 69.8571 174.807 69.8198 174.928C69.7825 175.04 69.7638 175.147 69.7638 175.25C69.7638 175.399 69.8105 175.521 69.9038 175.614C70.0065 175.707 70.2071 175.759 70.5058 175.768L72.4238 175.796ZM70.6318 177.252C70.4265 177.243 70.2538 177.266 70.1138 177.322C69.9831 177.378 69.8758 177.448 69.7918 177.532C69.7171 177.625 69.6611 177.723 69.6238 177.826C69.5958 177.938 69.5818 178.045 69.5818 178.148C69.5818 178.503 69.7125 178.741 69.9738 178.862C70.2445 178.993 70.6038 179.058 71.0518 179.058C71.6398 179.058 72.1111 178.965 72.4658 178.778C72.8298 178.591 73.0118 178.339 73.0118 178.022C73.0118 177.929 72.9978 177.84 72.9698 177.756C72.9511 177.672 72.9091 177.593 72.8438 177.518C72.7785 177.453 72.6851 177.397 72.5638 177.35C72.4518 177.303 72.2978 177.28 72.1018 177.28L70.6318 177.252ZM71.2058 173.43C71.5978 173.43 71.8778 173.318 72.0458 173.094C72.2231 172.87 72.3118 172.562 72.3118 172.17C72.3118 171.778 72.2231 171.47 72.0458 171.246C71.8778 171.013 71.5978 170.896 71.2058 170.896C70.8045 170.896 70.5151 171.013 70.3378 171.246C70.1605 171.47 70.0718 171.778 70.0718 172.17C70.0718 172.562 70.1605 172.87 70.3378 173.094C70.5151 173.318 70.8045 173.43 71.2058 173.43ZM76.6855 171.274H75.7475C75.7195 171.153 75.6961 171.027 75.6775 170.896C75.6681 170.756 75.6635 170.625 75.6635 170.504C75.6635 170.252 75.6915 170.005 75.7475 169.762H78.6315V177C78.2955 177.056 77.9688 177.084 77.6515 177.084C77.3435 177.084 77.0215 177.056 76.6855 177V171.274ZM76.3915 168.544C76.3355 168.227 76.3075 167.914 76.3075 167.606C76.3075 167.307 76.3355 166.995 76.3915 166.668C76.5501 166.64 76.7181 166.621 76.8955 166.612C77.0821 166.593 77.2501 166.584 77.3995 166.584C77.5581 166.584 77.7308 166.593 77.9175 166.612C78.1041 166.621 78.2768 166.64 78.4355 166.668C78.4635 166.827 78.4821 166.985 78.4915 167.144C78.5008 167.293 78.5055 167.447 78.5055 167.606C78.5055 167.755 78.5008 167.909 78.4915 168.068C78.4821 168.227 78.4635 168.385 78.4355 168.544C78.2768 168.572 78.1041 168.591 77.9175 168.6C77.7401 168.609 77.5721 168.614 77.4135 168.614C77.2641 168.614 77.0961 168.609 76.9095 168.6C76.7228 168.591 76.5501 168.572 76.3915 168.544ZM81.9864 173.85C81.4638 173.701 81.0531 173.481 80.7544 173.192C80.4651 172.893 80.3204 172.45 80.3204 171.862C80.3204 171.153 80.5724 170.597 81.0764 170.196C81.5898 169.795 82.2851 169.594 83.1624 169.594C83.5264 169.594 83.8858 169.627 84.2404 169.692C84.5951 169.757 84.9544 169.855 85.3184 169.986C85.2998 170.229 85.2531 170.481 85.1784 170.742C85.1038 171.003 85.0151 171.232 84.9124 171.428C84.6884 171.335 84.4411 171.255 84.1704 171.19C83.8998 171.115 83.6151 171.078 83.3164 171.078C82.9991 171.078 82.7518 171.129 82.5744 171.232C82.3971 171.325 82.3084 171.479 82.3084 171.694C82.3084 171.899 82.3691 172.044 82.4904 172.128C82.6211 172.212 82.8031 172.291 83.0364 172.366L83.8344 172.604C84.0958 172.679 84.3291 172.772 84.5344 172.884C84.7491 172.987 84.9311 173.117 85.0804 173.276C85.2298 173.435 85.3464 173.631 85.4304 173.864C85.5144 174.097 85.5564 174.382 85.5564 174.718C85.5564 175.063 85.4818 175.385 85.3324 175.684C85.1924 175.983 84.9824 176.244 84.7024 176.468C84.4318 176.683 84.1004 176.855 83.7084 176.986C83.3164 177.107 82.8731 177.168 82.3784 177.168C82.1544 177.168 81.9491 177.159 81.7624 177.14C81.5758 177.131 81.3938 177.107 81.2164 177.07C81.0484 177.042 80.8804 177.005 80.7124 176.958C80.5444 176.911 80.3624 176.851 80.1664 176.776C80.1851 176.524 80.2271 176.272 80.2924 176.02C80.3671 175.759 80.4604 175.507 80.5724 175.264C80.8804 175.385 81.1698 175.479 81.4404 175.544C81.7204 175.6 82.0098 175.628 82.3084 175.628C82.4391 175.628 82.5791 175.619 82.7284 175.6C82.8871 175.572 83.0318 175.53 83.1624 175.474C83.2931 175.409 83.4004 175.329 83.4844 175.236C83.5778 175.133 83.6244 175.003 83.6244 174.844C83.6244 174.62 83.5544 174.461 83.4144 174.368C83.2838 174.265 83.0971 174.177 82.8544 174.102L81.9864 173.85ZM87.2219 171.274H86.3119L86.2419 170.994L88.8599 167.648H89.1819V169.762H90.8759C90.9039 169.902 90.9226 170.028 90.9319 170.14C90.9412 170.252 90.9459 170.369 90.9459 170.49C90.9459 170.621 90.9412 170.747 90.9319 170.868C90.9226 170.989 90.9039 171.125 90.8759 171.274H89.1819V174.116C89.1819 174.405 89.2052 174.639 89.2519 174.816C89.2986 174.993 89.3639 175.133 89.4479 175.236C89.5412 175.339 89.6532 175.409 89.7839 175.446C89.9146 175.483 90.0686 175.502 90.2459 175.502C90.3859 175.502 90.5212 175.493 90.6519 175.474C90.7919 175.446 90.9132 175.423 91.0159 175.404C91.0812 175.581 91.1279 175.768 91.1559 175.964C91.1839 176.151 91.1979 176.319 91.1979 176.468C91.1979 176.571 91.1932 176.659 91.1839 176.734C91.1839 176.799 91.1792 176.865 91.1699 176.93C90.7406 177.033 90.2972 177.084 89.8399 177.084C88.9906 177.084 88.3419 176.888 87.8939 176.496C87.4459 176.095 87.2219 175.446 87.2219 174.55V171.274ZM93.9673 173.99C94.0046 174.55 94.2006 174.956 94.5553 175.208C94.9099 175.46 95.3766 175.586 95.9553 175.586C96.2726 175.586 96.5946 175.558 96.9213 175.502C97.2573 175.437 97.5746 175.348 97.8733 175.236C97.9759 175.423 98.0646 175.647 98.1393 175.908C98.2139 176.169 98.2559 176.449 98.2653 176.748C97.5373 177.028 96.7159 177.168 95.8013 177.168C95.1293 177.168 94.5506 177.075 94.0653 176.888C93.5893 176.701 93.1973 176.445 92.8893 176.118C92.5906 175.782 92.3666 175.385 92.2173 174.928C92.0773 174.471 92.0073 173.971 92.0073 173.43C92.0073 172.898 92.0819 172.399 92.2313 171.932C92.3806 171.465 92.5999 171.059 92.8893 170.714C93.1879 170.369 93.5519 170.098 93.9813 169.902C94.4199 169.697 94.9286 169.594 95.5073 169.594C96.0113 169.594 96.4593 169.683 96.8513 169.86C97.2433 170.037 97.5746 170.28 97.8453 170.588C98.1253 170.896 98.3353 171.265 98.4753 171.694C98.6153 172.114 98.6853 172.567 98.6853 173.052C98.6853 173.229 98.6759 173.407 98.6573 173.584C98.6479 173.752 98.6339 173.887 98.6153 173.99H93.9673ZM96.8093 172.604C96.7906 172.156 96.6646 171.797 96.4313 171.526C96.2073 171.246 95.8899 171.106 95.4793 171.106C95.0126 171.106 94.6579 171.237 94.4153 171.498C94.1726 171.759 94.0279 172.128 93.9813 172.604H96.8093ZM100.247 169.762C100.387 169.734 100.517 169.715 100.639 169.706C100.769 169.687 100.909 169.678 101.059 169.678C101.199 169.678 101.334 169.687 101.465 169.706C101.605 169.725 101.74 169.748 101.871 169.776C101.899 169.823 101.922 169.893 101.941 169.986C101.969 170.07 101.992 170.163 102.011 170.266C102.029 170.359 102.043 170.457 102.053 170.56C102.071 170.653 102.085 170.733 102.095 170.798C102.3 170.509 102.552 170.252 102.851 170.028C103.149 169.795 103.523 169.678 103.971 169.678C104.064 169.678 104.171 169.683 104.293 169.692C104.414 169.701 104.503 169.715 104.559 169.734C104.577 169.827 104.591 169.935 104.601 170.056C104.61 170.177 104.615 170.303 104.615 170.434C104.615 170.593 104.605 170.765 104.587 170.952C104.577 171.139 104.554 171.316 104.517 171.484C104.414 171.465 104.297 171.456 104.167 171.456C104.045 171.456 103.971 171.456 103.943 171.456C103.784 171.456 103.607 171.475 103.411 171.512C103.215 171.54 103.028 171.624 102.851 171.764C102.673 171.904 102.524 172.114 102.403 172.394C102.291 172.674 102.235 173.066 102.235 173.57V177.014C102.067 177.042 101.899 177.061 101.731 177.07C101.563 177.079 101.399 177.084 101.241 177.084C101.082 177.084 100.919 177.079 100.751 177.07C100.592 177.061 100.424 177.042 100.247 177.014V169.762Z" fill="white"/>
<path d="M59.0894 207.338C58.7721 207.217 58.4874 207.086 58.2354 206.946C57.9834 206.797 57.7687 206.624 57.5914 206.428C57.4141 206.223 57.2741 205.98 57.1714 205.7C57.0781 205.42 57.0314 205.084 57.0314 204.692C57.0314 204.216 57.1107 203.796 57.2694 203.432C57.4374 203.068 57.6707 202.765 57.9694 202.522C58.2681 202.27 58.6274 202.083 59.0474 201.962C59.4674 201.831 59.9387 201.766 60.4614 201.766C60.9374 201.766 61.3807 201.808 61.7914 201.892C62.2114 201.976 62.6501 202.097 63.1074 202.256C63.0514 202.797 62.9021 203.329 62.6594 203.852C62.5194 203.796 62.3747 203.74 62.2254 203.684C62.0854 203.628 61.9314 203.581 61.7634 203.544C61.6047 203.507 61.4227 203.479 61.2174 203.46C61.0121 203.432 60.7787 203.418 60.5174 203.418C60.3587 203.418 60.1954 203.432 60.0274 203.46C59.8687 203.488 59.7241 203.539 59.5934 203.614C59.4627 203.689 59.3554 203.801 59.2714 203.95C59.1874 204.09 59.1454 204.277 59.1454 204.51C59.1454 204.697 59.1781 204.855 59.2434 204.986C59.3087 205.107 59.3974 205.215 59.5094 205.308C59.6214 205.392 59.7474 205.467 59.8874 205.532C60.0274 205.588 60.1674 205.644 60.3074 205.7L61.1474 206.022C61.5021 206.162 61.8241 206.307 62.1134 206.456C62.4027 206.605 62.6454 206.792 62.8414 207.016C63.0467 207.231 63.2054 207.497 63.3174 207.814C63.4294 208.122 63.4854 208.505 63.4854 208.962C63.4854 209.438 63.3967 209.872 63.2194 210.264C63.0514 210.656 62.8041 210.992 62.4774 211.272C62.1507 211.552 61.7447 211.771 61.2594 211.93C60.7834 212.089 60.2327 212.168 59.6074 212.168C59.2994 212.168 59.0241 212.159 58.7814 212.14C58.5387 212.121 58.3054 212.089 58.0814 212.042C57.8667 212.005 57.6521 211.953 57.4374 211.888C57.2227 211.823 56.9987 211.743 56.7654 211.65C56.7934 211.379 56.8447 211.099 56.9194 210.81C56.9941 210.511 57.0827 210.213 57.1854 209.914C57.5774 210.073 57.9461 210.194 58.2914 210.278C58.6367 210.353 59.0054 210.39 59.3974 210.39C59.9854 210.39 60.4474 210.283 60.7834 210.068C61.1194 209.844 61.2874 209.508 61.2874 209.06C61.2874 208.836 61.2454 208.649 61.1614 208.5C61.0867 208.351 60.9841 208.225 60.8534 208.122C60.7321 208.019 60.5921 207.935 60.4334 207.87C60.2747 207.795 60.1114 207.725 59.9434 207.66L59.0894 207.338ZM65.3447 206.274H64.4067C64.3787 206.153 64.3553 206.027 64.3367 205.896C64.3273 205.756 64.3227 205.625 64.3227 205.504C64.3227 205.252 64.3507 205.005 64.4067 204.762H67.2907V212C66.9547 212.056 66.628 212.084 66.3107 212.084C66.0027 212.084 65.6807 212.056 65.3447 212V206.274ZM65.0507 203.544C64.9947 203.227 64.9667 202.914 64.9667 202.606C64.9667 202.307 64.9947 201.995 65.0507 201.668C65.2093 201.64 65.3773 201.621 65.5547 201.612C65.7413 201.593 65.9093 201.584 66.0587 201.584C66.2173 201.584 66.39 201.593 66.5767 201.612C66.7633 201.621 66.936 201.64 67.0947 201.668C67.1227 201.827 67.1413 201.985 67.1507 202.144C67.16 202.293 67.1647 202.447 67.1647 202.606C67.1647 202.755 67.16 202.909 67.1507 203.068C67.1413 203.227 67.1227 203.385 67.0947 203.544C66.936 203.572 66.7633 203.591 66.5767 203.6C66.3993 203.609 66.2313 203.614 66.0727 203.614C65.9233 203.614 65.7553 203.609 65.5687 203.6C65.382 203.591 65.2093 203.572 65.0507 203.544ZM73.3056 210.796C74.155 210.815 74.7803 211.006 75.1816 211.37C75.583 211.725 75.7836 212.233 75.7836 212.896C75.7836 213.288 75.681 213.643 75.4756 213.96C75.2703 214.287 74.9903 214.562 74.6356 214.786C74.281 215.01 73.861 215.183 73.3756 215.304C72.8903 215.425 72.3676 215.486 71.8076 215.486C71.2476 215.486 70.7716 215.439 70.3796 215.346C69.9876 215.262 69.6656 215.141 69.4136 214.982C69.171 214.823 68.9936 214.627 68.8816 214.394C68.779 214.161 68.7276 213.904 68.7276 213.624C68.7276 213.204 68.8256 212.859 69.0216 212.588C69.227 212.317 69.4976 212.079 69.8336 211.874C69.619 211.743 69.4463 211.585 69.3156 211.398C69.1943 211.202 69.1336 210.955 69.1336 210.656C69.1336 210.301 69.2083 210.012 69.3576 209.788C69.507 209.564 69.7263 209.349 70.0156 209.144C69.689 208.911 69.437 208.626 69.2596 208.29C69.0823 207.954 68.9936 207.581 68.9936 207.17C68.9936 206.806 69.0636 206.47 69.2036 206.162C69.3436 205.845 69.5443 205.574 69.8056 205.35C70.0763 205.117 70.403 204.935 70.7856 204.804C71.1683 204.673 71.5976 204.608 72.0736 204.608C72.5403 204.608 72.9696 204.683 73.3616 204.832C73.7536 204.972 74.0803 205.154 74.3416 205.378C74.519 205.145 74.7383 204.972 74.9996 204.86C75.261 204.739 75.6156 204.678 76.0636 204.678C76.0823 204.799 76.0963 204.921 76.1056 205.042C76.1243 205.154 76.1336 205.275 76.1336 205.406C76.1336 205.555 76.129 205.705 76.1196 205.854C76.1103 206.003 76.0916 206.157 76.0636 206.316H74.9296C74.9763 206.409 75.0183 206.521 75.0556 206.652C75.093 206.783 75.1116 206.955 75.1116 207.17C75.1116 207.534 75.0416 207.875 74.9016 208.192C74.771 208.5 74.575 208.766 74.3136 208.99C74.0523 209.214 73.7303 209.391 73.3476 209.522C72.9743 209.653 72.5496 209.718 72.0736 209.718C71.6723 209.718 71.313 209.676 70.9956 209.592C70.837 209.695 70.739 209.807 70.7016 209.928C70.6643 210.04 70.6456 210.147 70.6456 210.25C70.6456 210.399 70.6923 210.521 70.7856 210.614C70.8883 210.707 71.089 210.759 71.3876 210.768L73.3056 210.796ZM71.5136 212.252C71.3083 212.243 71.1356 212.266 70.9956 212.322C70.865 212.378 70.7576 212.448 70.6736 212.532C70.599 212.625 70.543 212.723 70.5056 212.826C70.4776 212.938 70.4636 213.045 70.4636 213.148C70.4636 213.503 70.5943 213.741 70.8556 213.862C71.1263 213.993 71.4856 214.058 71.9336 214.058C72.5216 214.058 72.993 213.965 73.3476 213.778C73.7116 213.591 73.8936 213.339 73.8936 213.022C73.8936 212.929 73.8796 212.84 73.8516 212.756C73.833 212.672 73.791 212.593 73.7256 212.518C73.6603 212.453 73.567 212.397 73.4456 212.35C73.3336 212.303 73.1796 212.28 72.9836 212.28L71.5136 212.252ZM72.0876 208.43C72.4796 208.43 72.7596 208.318 72.9276 208.094C73.105 207.87 73.1936 207.562 73.1936 207.17C73.1936 206.778 73.105 206.47 72.9276 206.246C72.7596 206.013 72.4796 205.896 72.0876 205.896C71.6863 205.896 71.397 206.013 71.2196 206.246C71.0423 206.47 70.9536 206.778 70.9536 207.17C70.9536 207.562 71.0423 207.87 71.2196 208.094C71.397 208.318 71.6863 208.43 72.0876 208.43ZM77.1753 204.762C77.306 204.734 77.4366 204.715 77.5673 204.706C77.698 204.687 77.8426 204.678 78.0013 204.678C78.16 204.678 78.3 204.687 78.4213 204.706C78.5426 204.715 78.6686 204.734 78.7993 204.762C78.8273 204.809 78.8506 204.879 78.8693 204.972C78.8973 205.056 78.9206 205.149 78.9393 205.252C78.958 205.345 78.972 205.439 78.9813 205.532C79 205.625 79.014 205.705 79.0233 205.77C79.1166 205.63 79.2286 205.49 79.3593 205.35C79.49 205.21 79.6393 205.084 79.8073 204.972C79.9846 204.86 80.1806 204.771 80.3953 204.706C80.61 204.631 80.848 204.594 81.1093 204.594C81.9306 204.594 82.5466 204.818 82.9573 205.266C83.3773 205.714 83.5873 206.419 83.5873 207.38V212C83.2513 212.056 82.92 212.084 82.5933 212.084C82.2666 212.084 81.9353 212.056 81.5993 212V207.912C81.5993 207.408 81.52 207.021 81.3613 206.75C81.212 206.479 80.946 206.344 80.5633 206.344C80.4046 206.344 80.2413 206.367 80.0733 206.414C79.9053 206.461 79.7513 206.554 79.6113 206.694C79.4806 206.825 79.3733 207.011 79.2893 207.254C79.2053 207.497 79.1633 207.814 79.1633 208.206V212C78.8273 212.056 78.496 212.084 78.1693 212.084C77.8426 212.084 77.5113 212.056 77.1753 212V204.762ZM88.4683 201.934C88.8136 201.878 89.1543 201.85 89.4903 201.85C89.8263 201.85 90.1716 201.878 90.5263 201.934V212C90.1716 212.056 89.8309 212.084 89.5043 212.084C89.1589 212.084 88.8136 212.056 88.4683 212V201.934ZM92.4878 204.762C92.6185 204.734 92.7491 204.715 92.8798 204.706C93.0105 204.687 93.1551 204.678 93.3138 204.678C93.4725 204.678 93.6125 204.687 93.7338 204.706C93.8551 204.715 93.9811 204.734 94.1118 204.762C94.1398 204.809 94.1631 204.879 94.1818 204.972C94.2098 205.056 94.2331 205.149 94.2518 205.252C94.2705 205.345 94.2845 205.439 94.2938 205.532C94.3125 205.625 94.3265 205.705 94.3358 205.77C94.4291 205.63 94.5411 205.49 94.6718 205.35C94.8025 205.21 94.9518 205.084 95.1198 204.972C95.2971 204.86 95.4931 204.771 95.7078 204.706C95.9225 204.631 96.1605 204.594 96.4218 204.594C97.2431 204.594 97.8591 204.818 98.2698 205.266C98.6898 205.714 98.8998 206.419 98.8998 207.38V212C98.5638 212.056 98.2325 212.084 97.9058 212.084C97.5791 212.084 97.2478 212.056 96.9118 212V207.912C96.9118 207.408 96.8325 207.021 96.6738 206.75C96.5245 206.479 96.2585 206.344 95.8758 206.344C95.7171 206.344 95.5538 206.367 95.3858 206.414C95.2178 206.461 95.0638 206.554 94.9238 206.694C94.7931 206.825 94.6858 207.011 94.6018 207.254C94.5178 207.497 94.4758 207.814 94.4758 208.206V212C94.1398 212.056 93.8085 212.084 93.4818 212.084C93.1551 212.084 92.8238 212.056 92.4878 212V204.762Z" fill="white"/>
<path d="M55.9429 242.338C55.6256 242.217 55.3409 242.086 55.0889 241.946C54.8369 241.797 54.6222 241.624 54.4449 241.428C54.2676 241.223 54.1276 240.98 54.0249 240.7C53.9316 240.42 53.8849 240.084 53.8849 239.692C53.8849 239.216 53.9642 238.796 54.1229 238.432C54.2909 238.068 54.5242 237.765 54.8229 237.522C55.1216 237.27 55.4809 237.083 55.9009 236.962C56.3209 236.831 56.7922 236.766 57.3149 236.766C57.7909 236.766 58.2342 236.808 58.6449 236.892C59.0649 236.976 59.5036 237.097 59.9609 237.256C59.9049 237.797 59.7556 238.329 59.5129 238.852C59.3729 238.796 59.2282 238.74 59.0789 238.684C58.9389 238.628 58.7849 238.581 58.6169 238.544C58.4582 238.507 58.2762 238.479 58.0709 238.46C57.8656 238.432 57.6322 238.418 57.3709 238.418C57.2122 238.418 57.0489 238.432 56.8809 238.46C56.7222 238.488 56.5776 238.539 56.4469 238.614C56.3162 238.689 56.2089 238.801 56.1249 238.95C56.0409 239.09 55.9989 239.277 55.9989 239.51C55.9989 239.697 56.0316 239.855 56.0969 239.986C56.1622 240.107 56.2509 240.215 56.3629 240.308C56.4749 240.392 56.6009 240.467 56.7409 240.532C56.8809 240.588 57.0209 240.644 57.1609 240.7L58.0009 241.022C58.3556 241.162 58.6776 241.307 58.9669 241.456C59.2562 241.605 59.4989 241.792 59.6949 242.016C59.9002 242.231 60.0589 242.497 60.1709 242.814C60.2829 243.122 60.3389 243.505 60.3389 243.962C60.3389 244.438 60.2502 244.872 60.0729 245.264C59.9049 245.656 59.6576 245.992 59.3309 246.272C59.0042 246.552 58.5982 246.771 58.1129 246.93C57.6369 247.089 57.0862 247.168 56.4609 247.168C56.1529 247.168 55.8776 247.159 55.6349 247.14C55.3922 247.121 55.1589 247.089 54.9349 247.042C54.7202 247.005 54.5056 246.953 54.2909 246.888C54.0762 246.823 53.8522 246.743 53.6189 246.65C53.6469 246.379 53.6982 246.099 53.7729 245.81C53.8476 245.511 53.9362 245.213 54.0389 244.914C54.4309 245.073 54.7996 245.194 55.1449 245.278C55.4902 245.353 55.8589 245.39 56.2509 245.39C56.8389 245.39 57.3009 245.283 57.6369 245.068C57.9729 244.844 58.1409 244.508 58.1409 244.06C58.1409 243.836 58.0989 243.649 58.0149 243.5C57.9402 243.351 57.8376 243.225 57.7069 243.122C57.5856 243.019 57.4456 242.935 57.2869 242.87C57.1282 242.795 56.9649 242.725 56.7969 242.66L55.9429 242.338ZM62.1982 241.274H61.2602C61.2322 241.153 61.2088 241.027 61.1902 240.896C61.1808 240.756 61.1762 240.625 61.1762 240.504C61.1762 240.252 61.2042 240.005 61.2602 239.762H64.1442V247C63.8082 247.056 63.4815 247.084 63.1642 247.084C62.8562 247.084 62.5342 247.056 62.1982 247V241.274ZM61.9042 238.544C61.8482 238.227 61.8202 237.914 61.8202 237.606C61.8202 237.307 61.8482 236.995 61.9042 236.668C62.0628 236.64 62.2308 236.621 62.4082 236.612C62.5948 236.593 62.7628 236.584 62.9122 236.584C63.0708 236.584 63.2435 236.593 63.4302 236.612C63.6168 236.621 63.7895 236.64 63.9482 236.668C63.9762 236.827 63.9948 236.985 64.0042 237.144C64.0135 237.293 64.0182 237.447 64.0182 237.606C64.0182 237.755 64.0135 237.909 64.0042 238.068C63.9948 238.227 63.9762 238.385 63.9482 238.544C63.7895 238.572 63.6168 238.591 63.4302 238.6C63.2528 238.609 63.0848 238.614 62.9262 238.614C62.7768 238.614 62.6088 238.609 62.4222 238.6C62.2355 238.591 62.0628 238.572 61.9042 238.544ZM70.1591 245.796C71.0085 245.815 71.6338 246.006 72.0351 246.37C72.4365 246.725 72.6371 247.233 72.6371 247.896C72.6371 248.288 72.5345 248.643 72.3291 248.96C72.1238 249.287 71.8438 249.562 71.4891 249.786C71.1345 250.01 70.7145 250.183 70.2291 250.304C69.7438 250.425 69.2211 250.486 68.6611 250.486C68.1011 250.486 67.6251 250.439 67.2331 250.346C66.8411 250.262 66.5191 250.141 66.2671 249.982C66.0245 249.823 65.8471 249.627 65.7351 249.394C65.6325 249.161 65.5811 248.904 65.5811 248.624C65.5811 248.204 65.6791 247.859 65.8751 247.588C66.0805 247.317 66.3511 247.079 66.6871 246.874C66.4725 246.743 66.2998 246.585 66.1691 246.398C66.0478 246.202 65.9871 245.955 65.9871 245.656C65.9871 245.301 66.0618 245.012 66.2111 244.788C66.3605 244.564 66.5798 244.349 66.8691 244.144C66.5425 243.911 66.2905 243.626 66.1131 243.29C65.9358 242.954 65.8471 242.581 65.8471 242.17C65.8471 241.806 65.9171 241.47 66.0571 241.162C66.1971 240.845 66.3978 240.574 66.6591 240.35C66.9298 240.117 67.2565 239.935 67.6391 239.804C68.0218 239.673 68.4511 239.608 68.9271 239.608C69.3938 239.608 69.8231 239.683 70.2151 239.832C70.6071 239.972 70.9338 240.154 71.1951 240.378C71.3725 240.145 71.5918 239.972 71.8531 239.86C72.1145 239.739 72.4691 239.678 72.9171 239.678C72.9358 239.799 72.9498 239.921 72.9591 240.042C72.9778 240.154 72.9871 240.275 72.9871 240.406C72.9871 240.555 72.9825 240.705 72.9731 240.854C72.9638 241.003 72.9451 241.157 72.9171 241.316H71.7831C71.8298 241.409 71.8718 241.521 71.9091 241.652C71.9465 241.783 71.9651 241.955 71.9651 242.17C71.9651 242.534 71.8951 242.875 71.7551 243.192C71.6245 243.5 71.4285 243.766 71.1671 243.99C70.9058 244.214 70.5838 244.391 70.2011 244.522C69.8278 244.653 69.4031 244.718 68.9271 244.718C68.5258 244.718 68.1665 244.676 67.8491 244.592C67.6905 244.695 67.5925 244.807 67.5551 244.928C67.5178 245.04 67.4991 245.147 67.4991 245.25C67.4991 245.399 67.5458 245.521 67.6391 245.614C67.7418 245.707 67.9425 245.759 68.2411 245.768L70.1591 245.796ZM68.3671 247.252C68.1618 247.243 67.9891 247.266 67.8491 247.322C67.7185 247.378 67.6111 247.448 67.5271 247.532C67.4525 247.625 67.3965 247.723 67.3591 247.826C67.3311 247.938 67.3171 248.045 67.3171 248.148C67.3171 248.503 67.4478 248.741 67.7091 248.862C67.9798 248.993 68.3391 249.058 68.7871 249.058C69.3751 249.058 69.8465 248.965 70.2011 248.778C70.5651 248.591 70.7471 248.339 70.7471 248.022C70.7471 247.929 70.7331 247.84 70.7051 247.756C70.6865 247.672 70.6445 247.593 70.5791 247.518C70.5138 247.453 70.4205 247.397 70.2991 247.35C70.1871 247.303 70.0331 247.28 69.8371 247.28L68.3671 247.252ZM68.9411 243.43C69.3331 243.43 69.6131 243.318 69.7811 243.094C69.9585 242.87 70.0471 242.562 70.0471 242.17C70.0471 241.778 69.9585 241.47 69.7811 241.246C69.6131 241.013 69.3331 240.896 68.9411 240.896C68.5398 240.896 68.2505 241.013 68.0731 241.246C67.8958 241.47 67.8071 241.778 67.8071 242.17C67.8071 242.562 67.8958 242.87 68.0731 243.094C68.2505 243.318 68.5398 243.43 68.9411 243.43ZM74.0288 239.762C74.1595 239.734 74.2902 239.715 74.4208 239.706C74.5515 239.687 74.6962 239.678 74.8548 239.678C75.0135 239.678 75.1535 239.687 75.2748 239.706C75.3962 239.715 75.5222 239.734 75.6528 239.762C75.6808 239.809 75.7042 239.879 75.7228 239.972C75.7508 240.056 75.7742 240.149 75.7928 240.252C75.8115 240.345 75.8255 240.439 75.8348 240.532C75.8535 240.625 75.8675 240.705 75.8768 240.77C75.9702 240.63 76.0822 240.49 76.2128 240.35C76.3435 240.21 76.4928 240.084 76.6608 239.972C76.8382 239.86 77.0342 239.771 77.2488 239.706C77.4635 239.631 77.7015 239.594 77.9628 239.594C78.7842 239.594 79.4002 239.818 79.8108 240.266C80.2308 240.714 80.4408 241.419 80.4408 242.38V247C80.1048 247.056 79.7735 247.084 79.4468 247.084C79.1202 247.084 78.7888 247.056 78.4528 247V242.912C78.4528 242.408 78.3735 242.021 78.2148 241.75C78.0655 241.479 77.7995 241.344 77.4168 241.344C77.2582 241.344 77.0948 241.367 76.9268 241.414C76.7588 241.461 76.6048 241.554 76.4648 241.694C76.3342 241.825 76.2268 242.011 76.1428 242.254C76.0588 242.497 76.0168 242.814 76.0168 243.206V247C75.6808 247.056 75.3495 247.084 75.0228 247.084C74.6962 247.084 74.3648 247.056 74.0288 247V239.762ZM89.4238 247.168C88.6678 247.168 88.0145 247.037 87.4638 246.776C86.9131 246.515 86.4605 246.155 86.1058 245.698C85.7511 245.231 85.4851 244.685 85.3078 244.06C85.1398 243.425 85.0558 242.735 85.0558 241.988C85.0558 241.241 85.1398 240.551 85.3078 239.916C85.4851 239.272 85.7511 238.717 86.1058 238.25C86.4605 237.783 86.9131 237.419 87.4638 237.158C88.0145 236.897 88.6678 236.766 89.4238 236.766C90.1798 236.766 90.8331 236.897 91.3838 237.158C91.9345 237.419 92.3871 237.783 92.7418 238.25C93.0965 238.717 93.3578 239.272 93.5258 239.916C93.7031 240.551 93.7918 241.241 93.7918 241.988C93.7918 242.735 93.7031 243.425 93.5258 244.06C93.3578 244.685 93.0965 245.231 92.7418 245.698C92.3871 246.155 91.9345 246.515 91.3838 246.776C90.8331 247.037 90.1798 247.168 89.4238 247.168ZM89.4238 245.46C90.8705 245.46 91.5938 244.303 91.5938 241.988C91.5938 240.831 91.4165 239.963 91.0618 239.384C90.7165 238.805 90.1751 238.516 89.4378 238.516C87.9725 238.516 87.2398 239.673 87.2398 241.988C87.2398 244.303 87.9678 245.46 89.4238 245.46ZM95.354 239.762C95.69 239.706 96.0213 239.678 96.348 239.678C96.6747 239.678 97.006 239.706 97.342 239.762V243.598C97.342 243.981 97.37 244.298 97.426 244.55C97.4913 244.793 97.5847 244.989 97.706 245.138C97.8367 245.278 97.9953 245.381 98.182 245.446C98.3687 245.502 98.588 245.53 98.84 245.53C99.1853 245.53 99.4747 245.497 99.708 245.432V239.762C100.044 239.706 100.371 239.678 100.688 239.678C101.015 239.678 101.346 239.706 101.682 239.762V246.72C101.383 246.823 100.987 246.921 100.492 247.014C100.007 247.117 99.498 247.168 98.966 247.168C98.49 247.168 98.0327 247.131 97.594 247.056C97.1553 246.981 96.768 246.823 96.432 246.58C96.1053 246.337 95.844 245.983 95.648 245.516C95.452 245.049 95.354 244.429 95.354 243.654V239.762ZM103.688 241.274H102.778L102.708 240.994L105.326 237.648H105.648V239.762H107.342C107.37 239.902 107.388 240.028 107.398 240.14C107.407 240.252 107.412 240.369 107.412 240.49C107.412 240.621 107.407 240.747 107.398 240.868C107.388 240.989 107.37 241.125 107.342 241.274H105.648V244.116C105.648 244.405 105.671 244.639 105.718 244.816C105.764 244.993 105.83 245.133 105.914 245.236C106.007 245.339 106.119 245.409 106.25 245.446C106.38 245.483 106.534 245.502 106.712 245.502C106.852 245.502 106.987 245.493 107.118 245.474C107.258 245.446 107.379 245.423 107.482 245.404C107.547 245.581 107.594 245.768 107.622 245.964C107.65 246.151 107.664 246.319 107.664 246.468C107.664 246.571 107.659 246.659 107.65 246.734C107.65 246.799 107.645 246.865 107.636 246.93C107.206 247.033 106.763 247.084 106.306 247.084C105.456 247.084 104.808 246.888 104.36 246.496C103.912 246.095 103.688 245.446 103.688 244.55V241.274Z" fill="white"/>
<g clip-path="url(#clip1_2_88)">
<path d="M85.7851 27.9838C89.6864 27.9838 93.3091 30.0754 95.2597 33.4616L106.546 53.0222C108.496 56.4085 108.496 60.5915 106.546 63.9778L95.2597 83.5384C93.3091 86.9246 89.6864 89.0162 85.7851 89.0162H63.2135C59.3122 89.0162 55.6896 86.9246 53.739 83.5384L42.4532 63.9778C40.5025 60.5915 40.5025 56.4085 42.4532 53.0222L53.739 33.4616C55.6896 30.0754 59.3122 27.9838 63.2135 27.9838H85.7851ZM85.7851 24H63.2135C57.8791 24 52.9428 26.8484 50.2756 31.4697L38.9898 51.0303C36.3226 55.6516 36.3226 61.3484 38.9898 65.9697L50.2756 85.5303C52.9428 90.1516 57.8791 93 63.2135 93H85.7851C91.1196 93 96.0559 90.1516 98.7231 85.5303L110.009 65.9697C112.676 61.3484 112.676 55.6516 110.009 51.0303L98.7031 31.4697C96.0559 26.8484 91.1196 24 85.7851 24Z" fill="white"/>
<path d="M84.4521 74.8337C84.4521 74.8337 84.4323 74.8337 84.4521 74.8337L64.5278 74.7341C62.8757 74.7341 61.5421 73.3796 61.562 71.7263C61.562 70.073 62.8956 68.7583 64.5477 68.7583H64.5676L84.4721 68.8579C86.1241 68.8579 87.4577 70.2124 87.4378 71.8657C87.4378 73.4991 86.0843 74.8337 84.4521 74.8337Z" fill="white"/>
<path d="M74.5 66.0693C67.3742 66.0693 61.5621 60.2529 61.5621 53.1218C61.5621 45.9908 67.3742 40.1744 74.5 40.1744C81.6258 40.1744 87.4379 45.9908 87.4379 53.1218C87.4379 60.2529 81.6258 66.0693 74.5 66.0693ZM74.5 46.1501C70.6584 46.1501 67.5334 49.2774 67.5334 53.1218C67.5334 56.9663 70.6584 60.0935 74.5 60.0935C78.3416 60.0935 81.4665 56.9663 81.4665 53.1218C81.4665 49.2774 78.3416 46.1501 74.5 46.1501Z" fill="white"/>
</g>
</g>
<defs>
<linearGradient id="paint0_linear_2_88" x1="150" y1="0" x2="-7.71281" y2="105.466" gradientUnits="userSpaceOnUse">
<stop stop-color="#431D39"/>
<stop offset="1" stop-color="#322B6E"/>
</linearGradient>
<clipPath id="clip0_2_88">
<rect width="150" height="275" rx="4" fill="white"/>
</clipPath>
<clipPath id="clip1_2_88">
<rect width="75" height="75" fill="white" transform="translate(37 21)"/>
</clipPath>
</defs>
</svg>
